<svg id="8f99c227-2211-4d37-9cff-1afbf172711d" data-name="Layer 1" xmlns="http://www.w3.org/2000/svg" xmlns:xlink="http://www.w3.org/1999/xlink" viewBox="0 0 363.93 363.93"><defs><style>.dbac89e8-91dd-4db0-b11f-bdc39aee08d0{fill:none;}.\35 533da53-319b-4fcd-b4d8-b255f10cb050{clip-path:url(#71500a07-e402-42a4-9c3c-606914a680e0);}.e1eda37c-503d-4fbd-a1af-674979339fc2{fill:#bec3c7;}.ded2bec4-219d-4788-9898-8763c941090c{fill:#c13a2b;}.\36 b745511-c209-443e-8e68-edeb1274345b{fill:#ecf0f1;}.\35 84cada3-e93a-4f9c-802f-dfa60157a9e2{clip-path:url(#e0720904-8937-4c8b-a8e2-eebe2f804523);}.cc793816-594e-4ea4-a08e-19cc47f0ca91{fill:#f29c1f;}</style><clipPath id="71500a07-e402-42a4-9c3c-606914a680e0" transform="translate(-237.98 -114.67)"><polygon class="dbac89e8-91dd-4db0-b11f-bdc39aee08d0" points="606.6 111.98 235.29 483.3 235.29 111.98 606.6 111.98"/></clipPath><clipPath id="e0720904-8937-4c8b-a8e2-eebe2f804523" transform="translate(-237.98 -114.67)"><polygon class="dbac89e8-91dd-4db0-b11f-bdc39aee08d0" points="234.29 482.3 605.6 110.98 605.6 482.3 234.29 482.3"/></clipPath></defs><title>blackhole_4</title><g class="5533da53-319b-4fcd-b4d8-b255f10cb050"><rect class="e1eda37c-503d-4fbd-a1af-674979339fc2" width="363.93" height="363.93"/><rect class="ded2bec4-219d-4788-9898-8763c941090c" x="54.82" y="54.92" width="267.58" height="267.58"/><path class="6b745511-c209-443e-8e68-edeb1274345b" d="M542.87,187.09V419.67H310.3V187.09H542.87m35-35H275.3V454.67H577.87V152.09h0Z" transform="translate(-237.98 -114.67)"/></g><g class="584cada3-e93a-4f9c-802f-dfa60157a9e2"><rect class="6b745511-c209-443e-8e68-edeb1274345b" width="363.93" height="363.93"/><rect class="ded2bec4-219d-4788-9898-8763c941090c" x="41.54" y="41.44" width="267.58" height="267.58"/><path class="e1eda37c-503d-4fbd-a1af-674979339fc2" d="M529.59,173.61V406.19H297V173.61H529.59m35-35H262V441.19H564.59V138.61h0Z" transform="translate(-237.98 -114.67)"/></g><circle class="cc793816-594e-4ea4-a08e-19cc47f0ca91" cx="127.9" cy="100.48" r="13.82"/><circle class="cc793816-594e-4ea4-a08e-19cc47f0ca91" cx="127.9" cy="208.39" r="13.82"/><circle class="cc793816-594e-4ea4-a08e-19cc47f0ca91" cx="210.81" cy="208.39" r="13.82"/><circle class="cc793816-594e-4ea4-a08e-19cc47f0ca91" cx="266.08" cy="208.39" r="13.82"/><circle class="cc793816-594e-4ea4-a08e-19cc47f0ca91" cx="266.08" cy="236.02" r="13.82"/><circle class="cc793816-594e-4ea4-a08e-19cc47f0ca91" cx="266.08" cy="100.48" r="13.82"/><circle class="cc793816-594e-4ea4-a08e-19cc47f0ca91" cx="100.27" cy="236.02" r="13.82"/><circle class="cc793816-594e-4ea4-a08e-19cc47f0ca91" cx="127.9" cy="236.02" r="13.82"/><circle class="cc793816-594e-4ea4-a08e-19cc47f0ca91" cx="155.54" cy="263.65" r="13.82"/><circle class="cc793816-594e-4ea4-a08e-19cc47f0ca91" cx="210.81" cy="263.65" r="13.82"/><circle class="cc793816-594e-4ea4-a08e-19cc47f0ca91" cx="238.44" cy="263.65" r="13.82"/><circle class="cc793816-594e-4ea4-a08e-19cc47f0ca91" cx="238.44" cy="153.12" r="13.82"/><circle class="cc793816-594e-4ea4-a08e-19cc47f0ca91" cx="210.81" cy="153.12" r="13.82"/><circle class="cc793816-594e-4ea4-a08e-19cc47f0ca91" cx="183.08" cy="180.75" r="13.82"/><circle class="cc793816-594e-4ea4-a08e-19cc47f0ca91" cx="127.9" cy="128.46" r="13.82"/></svg>