<svg id="cb9ae037-3b80-4189-859a-523a36957250" data-name="Layer 1" xmlns="http://www.w3.org/2000/svg" viewBox="0 0 362.15 408.49"><defs><style>.f6cfa261-ad4b-4d54-81ad-79ec2890b6bc{fill:#f0c419;}.\36 e84c870-c422-475e-987b-42aaa827e9aa,.f6cfa261-ad4b-4d54-81ad-79ec2890b6bc{stroke:#2d3e50;}.\30 4927d06-dae5-4041-bf03-33902027d577,.\36 e84c870-c422-475e-987b-42aaa827e9aa,.f6cfa261-ad4b-4d54-81ad-79ec2890b6bc{stroke-linecap:round;stroke-linejoin:round;stroke-width:50px;}.\30 4927d06-dae5-4041-bf03-33902027d577,.\36 e84c870-c422-475e-987b-42aaa827e9aa{fill:none;}.\30 4927d06-dae5-4041-bf03-33902027d577{stroke:#e74c3d;}.f309d88d-5b58-4d87-864c-3662e1e8e063{fill:#e74c3d;}</style></defs><title>sentry_up</title><path class="f6cfa261-ad4b-4d54-81ad-79ec2890b6bc" d="M577,260.91v204c0,6.6-5.95,12-13.21,12H278.08c-7.27,0-13.21-5.4-13.21-12v-204c0-6.6,156.08-142.52,156.08-142.52S577,254.31,577,260.91Z" transform="translate(-239.87 -93.4)"/><line class="04927d06-dae5-4041-bf03-33902027d577" x1="181.08" y1="383.49" x2="181.08" y2="155.52"/><polyline class="f309d88d-5b58-4d87-864c-3662e1e8e063" points="25 189.05 181.08 47.32 337.15 189.05 25.19 189.05"/><path class="6e84c870-c422-475e-987b-42aaa827e9aa" d="M577,260.91v204c0,6.6-5.95,12-13.21,12H278.08c-7.27,0-13.21-5.4-13.21-12v-204c0-6.6,156.08-142.52,156.08-142.52S577,254.31,577,260.91Z" transform="translate(-239.87 -93.4)"/></svg>