<svg id="a0d545a0-ec87-47d1-ab82-e092f31819e7" data-name="Layer 1" xmlns="http://www.w3.org/2000/svg" viewBox="0 0 362.15 408.49"><defs><style>.\36 1cc7f66-4146-4150-9292-84bdb1490f63{fill:#f0c419;}.\36 1cc7f66-4146-4150-9292-84bdb1490f63,.\37 425ee23-9328-4b8c-86b1-69299855937a{stroke:#2d3e50;}.\34 8c22bb2-5e52-472b-aba4-cfd195bb7619,.\36 1cc7f66-4146-4150-9292-84bdb1490f63,.\37 425ee23-9328-4b8c-86b1-69299855937a{stroke-linecap:round;stroke-linejoin:round;stroke-width:50px;}.\34 8c22bb2-5e52-472b-aba4-cfd195bb7619,.\37 425ee23-9328-4b8c-86b1-69299855937a{fill:none;}.\34 8c22bb2-5e52-472b-aba4-cfd195bb7619{stroke:#e74c3d;}.f28d7e5f-c289-46e9-8458-39c227cbecce{fill:#e74c3d;}</style></defs><title>sentry_down</title><path class="61cc7f66-4146-4150-9292-84bdb1490f63" d="M264.87,334.37v-204c0-6.6,5.95-12,13.21-12H563.81c7.27,0,13.21,5.4,13.21,12v204c0,6.6-156.08,142.52-156.08,142.52S264.87,341,264.87,334.37Z" transform="translate(-239.87 -93.4)"/><line class="48c22bb2-5e52-472b-aba4-cfd195bb7619" x1="181.08" y1="25" x2="181.08" y2="252.97"/><polyline class="f28d7e5f-c289-46e9-8458-39c227cbecce" points="337.15 219.44 181.08 361.17 25 219.44 336.96 219.44"/><path class="7425ee23-9328-4b8c-86b1-69299855937a" d="M264.87,334.37v-204c0-6.6,5.95-12,13.21-12H563.81c7.27,0,13.21,5.4,13.21,12v204c0,6.6-156.08,142.52-156.08,142.52S264.87,341,264.87,334.37Z" transform="translate(-239.87 -93.4)"/></svg>