<svg id="b2926037-9110-4ebd-9f19-63ab79ccd403" data-name="Layer 1" xmlns="http://www.w3.org/2000/svg" viewBox="0 0 425.2 425.2"><defs><style>.dcb930c9-3114-42f7-9571-59c5db523633{fill:#bec3c7;}.\36 598de71-d0af-43b3-9380-18a547d0ea14{fill:#ecf0f1;}.\34 e8ae80b-342d-44d8-a3dc-c830203bc225{fill:#7e8c8d;}</style></defs><title>wall_round_4</title><path class="dcb930c9-3114-42f7-9571-59c5db523633" d="M141.73,0H425.2a0,0,0,0,1,0,0V425.2a0,0,0,0,1,0,0H141.73A141.73,141.73,0,0,1,0,283.46V141.73A141.73,141.73,0,0,1,141.73,0Z"/><path class="6598de71-d0af-43b3-9380-18a547d0ea14" d="M302.83,274a94.49,94.49,0,0,1,94.49-94.49H530.51a94,94,0,0,0-62.32-23.62H373.7c-52,0-94.49,42.52-94.49,94.49v94.49a94,94,0,0,0,23.62,62.32V274Z" transform="translate(-208.35 -85.04)"/><path class="4e8ae80b-342d-44d8-a3dc-c830203bc225" d="M539.06,321.26a94.49,94.49,0,0,1-94.49,94.49H311.38a94,94,0,0,0,62.32,23.62h94.49c52,0,94.49-42.52,94.49-94.49V250.4a94,94,0,0,0-23.62-62.32V321.26Z" transform="translate(-208.35 -85.04)"/></svg>