<svg id="e009fbc7-7ed8-4102-bfa0-3e5dd6954641" data-name="Layer 1" xmlns="http://www.w3.org/2000/svg" xmlns:xlink="http://www.w3.org/1999/xlink" viewBox="0 0 363.93 363.93"><defs><style>.\34 814f96b-7dc5-4712-90b1-a725ebe6569d{fill:none;}.\30 4a72171-829e-475e-8127-b8047b59923f{clip-path:url(#73a93f7b-4326-4b87-8bac-5f42228a655a);}.\34 d904da1-94b2-4674-ac05-d7f891416143{fill:#bec3c7;}.\36 09eee37-0798-4acb-a553-d1fd7a420c8d{fill:#ecf0f1;}.\30 61ce02d-869b-45e6-8960-6032136b05d8{clip-path:url(#3562b7ff-f4e7-4627-8e55-2449d31c346f);}.\36 193ae5b-fda3-4a13-950a-b07f328737a2{fill:#e74c3d;}</style><clipPath id="73a93f7b-4326-4b87-8bac-5f42228a655a" transform="translate(-237.98 -114.67)"><polygon class="4814f96b-7dc5-4712-90b1-a725ebe6569d" points="606.6 111.98 235.29 483.3 235.29 111.98 606.6 111.98"/></clipPath><clipPath id="3562b7ff-f4e7-4627-8e55-2449d31c346f" transform="translate(-237.98 -114.67)"><polygon class="4814f96b-7dc5-4712-90b1-a725ebe6569d" points="234.29 482.3 605.6 110.98 605.6 482.3 234.29 482.3"/></clipPath></defs><title>blackhole</title><g class="04a72171-829e-475e-8127-b8047b59923f"><rect class="4d904da1-94b2-4674-ac05-d7f891416143" width="363.93" height="363.93"/><rect x="54.82" y="54.92" width="267.58" height="267.58"/><path class="609eee37-0798-4acb-a553-d1fd7a420c8d" d="M542.87,187.09V419.67H310.3V187.09H542.87m35-35H275.3V454.67H577.87V152.09h0Z" transform="translate(-237.98 -114.67)"/></g><g class="061ce02d-869b-45e6-8960-6032136b05d8"><rect class="609eee37-0798-4acb-a553-d1fd7a420c8d" width="363.93" height="363.93"/><rect x="41.54" y="41.44" width="267.58" height="267.58"/><path class="4d904da1-94b2-4674-ac05-d7f891416143" d="M529.59,173.61V406.19H297V173.61H529.59m35-35H262V441.19H564.59V138.61h0Z" transform="translate(-237.98 -114.67)"/></g><circle class="6193ae5b-fda3-4a13-950a-b07f328737a2" cx="264.76" cy="126.8" r="13.82"/><circle class="6193ae5b-fda3-4a13-950a-b07f328737a2" cx="156.85" cy="99.16" r="13.82"/><circle class="6193ae5b-fda3-4a13-950a-b07f328737a2" cx="156.85" cy="154.43" r="13.82"/><circle class="6193ae5b-fda3-4a13-950a-b07f328737a2" cx="129.22" cy="209.7" r="13.82"/><circle class="6193ae5b-fda3-4a13-950a-b07f328737a2" cx="129.22" cy="237.33" r="13.82"/><circle class="6193ae5b-fda3-4a13-950a-b07f328737a2" cx="101.58" cy="261.94" r="13.82"/><circle class="6193ae5b-fda3-4a13-950a-b07f328737a2" cx="264.76" cy="264.97" r="13.82"/><circle class="6193ae5b-fda3-4a13-950a-b07f328737a2" cx="237.13" cy="264.97" r="13.82"/></svg>