<svg id="171df3f7-18a6-4d0b-925c-f129fcd3f2f0" data-name="Layer 1" xmlns="http://www.w3.org/2000/svg" viewBox="0 0 425.2 425.2"><defs><style>.\35 f9e10dc-1fb1-41d4-8353-afd1f74d66d0{fill:#bec3c7;}.\35 3f4ac36-4197-4349-aa19-af66491d01b5{fill:#ecf0f1;}.\37 7d04821-b73c-482d-a975-9099337e7d30{fill:#7e8c8d;}</style></defs><title>wall_round_8</title><path class="5f9e10dc-1fb1-41d4-8353-afd1f74d66d0" d="M141.73,0H283.46A141.73,141.73,0,0,1,425.2,141.73V425.2a0,0,0,0,1,0,0H0a0,0,0,0,1,0,0V141.73A141.73,141.73,0,0,1,141.73,0Z"/><path class="53f4ac36-4197-4349-aa19-af66491d01b5" d="M302.83,274a94.49,94.49,0,0,1,94.49-94.49H530.51a94,94,0,0,0-62.32-23.62H373.7c-52,0-94.49,42.52-94.49,94.49v94.49a94,94,0,0,0,23.62,62.32V274Z" transform="translate(-208.35 -85.04)"/><path class="77d04821-b73c-482d-a975-9099337e7d30" d="M539.06,321.26a94.49,94.49,0,0,1-94.49,94.49H311.38a94,94,0,0,0,62.32,23.62h94.49c52,0,94.49-42.52,94.49-94.49V250.4a94,94,0,0,0-23.62-62.32V321.26Z" transform="translate(-208.35 -85.04)"/></svg>