<svg id="27bf52ac-734b-43a9-9cfb-454aa47bfadf" data-name="Layer 1" xmlns="http://www.w3.org/2000/svg" viewBox="0 0 425.2 425.2"><defs><style>.\37 7269e87-3d64-474d-ab5f-2f2058fed098{fill:#bec3c7;}.\35 124ca88-beee-42bc-aa5e-066344b94c27{fill:#ecf0f1;}.cf0750f1-238a-4ffc-83c2-52262d68e08b{fill:#7e8c8d;}</style></defs><title>wall_round_3</title><path class="77269e87-3d64-474d-ab5f-2f2058fed098" d="M0,0H425.2a0,0,0,0,1,0,0V283.46A141.73,141.73,0,0,1,283.46,425.2H0a0,0,0,0,1,0,0V0A0,0,0,0,1,0,0Z"/><path class="5124ca88-beee-42bc-aa5e-066344b94c27" d="M302.83,274a94.49,94.49,0,0,1,94.49-94.49H530.51a94,94,0,0,0-62.32-23.62H373.7c-52,0-94.49,42.52-94.49,94.49v94.49a94,94,0,0,0,23.62,62.32V274Z" transform="translate(-208.35 -85.04)"/><path class="cf0750f1-238a-4ffc-83c2-52262d68e08b" d="M539.06,321.26a94.49,94.49,0,0,1-94.49,94.49H311.38a94,94,0,0,0,62.32,23.62h94.49c52,0,94.49-42.52,94.49-94.49V250.4a94,94,0,0,0-23.62-62.32V321.26Z" transform="translate(-208.35 -85.04)"/></svg>