<svg id="a2a81655-add2-4160-9ef4-6b2919019a2b" data-name="Layer 1" xmlns="http://www.w3.org/2000/svg" xmlns:xlink="http://www.w3.org/1999/xlink" viewBox="0 0 363.93 363.93"><defs><style>.\32 7017a7c-6413-4481-8a1d-3020e779edd6{fill:none;}.\33 f07f6de-ec8b-4db3-bd55-27952de6c1a6{clip-path:url(#74d05bee-0828-427f-8f0e-6010a693208c);}.\33 a6b8733-0bc8-4f9e-965d-fc29e5cc7524{fill:#bec3c7;}.\30 3ae07c0-5317-4ffc-9099-49bc8257737c{fill:#f29c21;}.a382b288-2628-4970-8dd2-3a8164b97a47{fill:#ecf0f1;}.\34 e0dfca2-25be-4357-a18a-3e169ad65718{clip-path:url(#edc86cd3-7c33-45ad-9255-6f7db2d44566);}.\35 5c0bfe7-26d6-4390-a4ce-6f5165b6b849{fill:#f29c23;}.cf9395ca-8acd-461b-b8b5-f072ad10c46f{fill:#c13b2b;}</style><clipPath id="74d05bee-0828-427f-8f0e-6010a693208c" transform="translate(-237.98 -114.67)"><polygon class="27017a7c-6413-4481-8a1d-3020e779edd6" points="606.6 111.98 235.29 483.3 235.29 111.98 606.6 111.98"/></clipPath><clipPath id="edc86cd3-7c33-45ad-9255-6f7db2d44566" transform="translate(-237.98 -114.67)"><polygon class="27017a7c-6413-4481-8a1d-3020e779edd6" points="234.29 482.3 605.6 110.98 605.6 482.3 234.29 482.3"/></clipPath></defs><title>blackhole_3</title><g class="3f07f6de-ec8b-4db3-bd55-27952de6c1a6"><rect class="3a6b8733-0bc8-4f9e-965d-fc29e5cc7524" width="363.93" height="363.93"/><rect class="03ae07c0-5317-4ffc-9099-49bc8257737c" x="54.82" y="54.92" width="267.58" height="267.58"/><path class="a382b288-2628-4970-8dd2-3a8164b97a47" d="M542.87,187.09V419.67H310.3V187.09H542.87m35-35H275.3V454.67H577.87V152.09h0Z" transform="translate(-237.98 -114.67)"/></g><g class="4e0dfca2-25be-4357-a18a-3e169ad65718"><rect class="a382b288-2628-4970-8dd2-3a8164b97a47" width="363.93" height="363.93"/><rect class="55c0bfe7-26d6-4390-a4ce-6f5165b6b849" x="41.54" y="41.44" width="267.58" height="267.58"/><path class="3a6b8733-0bc8-4f9e-965d-fc29e5cc7524" d="M529.59,173.61V406.19H297V173.61H529.59m35-35H262V441.19H564.59V138.61h0Z" transform="translate(-237.98 -114.67)"/></g><circle class="cf9395ca-8acd-461b-b8b5-f072ad10c46f" cx="156.85" cy="126.8" r="13.82"/><circle class="cf9395ca-8acd-461b-b8b5-f072ad10c46f" cx="264.76" cy="264.97" r="13.82"/><circle class="cf9395ca-8acd-461b-b8b5-f072ad10c46f" cx="129.22" cy="154.43" r="13.82"/><circle class="cf9395ca-8acd-461b-b8b5-f072ad10c46f" cx="101.58" cy="237.33" r="13.82"/><circle class="cf9395ca-8acd-461b-b8b5-f072ad10c46f" cx="212.12" cy="237.33" r="13.82"/><circle class="cf9395ca-8acd-461b-b8b5-f072ad10c46f" cx="212.12" cy="209.7" r="13.82"/><circle class="cf9395ca-8acd-461b-b8b5-f072ad10c46f" cx="250.94" cy="99.16" r="13.82"/><circle class="cf9395ca-8acd-461b-b8b5-f072ad10c46f" cx="184.49" cy="237.33" r="13.82"/><circle class="cf9395ca-8acd-461b-b8b5-f072ad10c46f" cx="184.49" cy="209.7" r="13.82"/><circle class="cf9395ca-8acd-461b-b8b5-f072ad10c46f" cx="129.22" cy="181.97" r="13.82"/><circle class="cf9395ca-8acd-461b-b8b5-f072ad10c46f" cx="101.58" cy="126.8" r="13.82"/><circle class="cf9395ca-8acd-461b-b8b5-f072ad10c46f" cx="209.14" cy="99.16" r="13.82"/><circle class="cf9395ca-8acd-461b-b8b5-f072ad10c46f" cx="250.94" cy="135.9" r="13.82"/><circle class="cf9395ca-8acd-461b-b8b5-f072ad10c46f" cx="264.76" cy="195.78" r="13.82"/></svg>