<svg id="5abd8261-c2ba-493e-a6b5-e63464e5e9a7" data-name="Layer 1" xmlns="http://www.w3.org/2000/svg" viewBox="0 0 362.15 408.49"><defs><style>.f94bc8d4-3f60-41db-aa1f-bb9afaa10758{fill:#f0c419;}.\32 d5cc2c4-ae24-446f-a4a0-5be56edc478b,.f94bc8d4-3f60-41db-aa1f-bb9afaa10758{stroke:#2d3e50;stroke-width:50px;}.\31 ac17d0a-ab06-45be-a79d-77f08ec0073a,.\32 d5cc2c4-ae24-446f-a4a0-5be56edc478b,.f94bc8d4-3f60-41db-aa1f-bb9afaa10758{stroke-linecap:round;stroke-linejoin:round;}.\31 ac17d0a-ab06-45be-a79d-77f08ec0073a,.\32 d5cc2c4-ae24-446f-a4a0-5be56edc478b{fill:none;}.\31 ac17d0a-ab06-45be-a79d-77f08ec0073a{stroke:#e74c3d;stroke-width:20px;}.e94c44a4-5859-438d-bac8-a66b75073da5{fill:#e74c3d;}</style></defs><title>sentry_down</title><path class="f94bc8d4-3f60-41db-aa1f-bb9afaa10758" d="M193.91,352.82v-204c0-6.6,5.95-12,13.21-12H492.85c7.27,0,13.21,5.4,13.21,12v204c0,6.6-156.08,142.52-156.08,142.52S193.91,359.42,193.91,352.82Z" transform="translate(-168.91 -111.85)"/><line class="1ac17d0a-ab06-45be-a79d-77f08ec0073a" x1="181.08" y1="25" x2="181.08" y2="252.97"/><polyline class="e94c44a4-5859-438d-bac8-a66b75073da5" points="337.15 219.44 181.08 361.17 25 219.44 336.96 219.44"/><path class="2d5cc2c4-ae24-446f-a4a0-5be56edc478b" d="M193.91,352.82v-204c0-6.6,5.95-12,13.21-12H492.85c7.27,0,13.21,5.4,13.21,12v204c0,6.6-156.08,142.52-156.08,142.52S193.91,359.42,193.91,352.82Z" transform="translate(-168.91 -111.85)"/></svg>