<svg id="83aa61ea-4848-4248-b462-b74b526cc8b4" data-name="Layer 1" xmlns="http://www.w3.org/2000/svg" viewBox="0 0 362.15 408.49"><defs><style>.\39 f237276-af14-4d47-9fa6-c05c10f5e102{fill:#f0c419;}.\30 1b721a9-36c3-4899-9642-538bf7343999,.\39 f237276-af14-4d47-9fa6-c05c10f5e102{stroke:#2d3e50;stroke-width:50px;}.\30 1b721a9-36c3-4899-9642-538bf7343999,.\38 2562e22-f529-4fc9-84a9-8a37ca41977b,.\39 f237276-af14-4d47-9fa6-c05c10f5e102{stroke-linecap:round;stroke-linejoin:round;}.\30 1b721a9-36c3-4899-9642-538bf7343999,.\38 2562e22-f529-4fc9-84a9-8a37ca41977b{fill:none;}.\38 2562e22-f529-4fc9-84a9-8a37ca41977b{stroke:#e74c3d;stroke-width:20px;}.\32 1804fa4-053c-4b5e-8a2f-8f9b02c601ce{fill:#e74c3d;}</style></defs><title>sentry_up</title><path class="9f237276-af14-4d47-9fa6-c05c10f5e102" d="M577,260.91v204c0,6.6-5.95,12-13.21,12H278.08c-7.27,0-13.21-5.4-13.21-12v-204c0-6.6,156.08-142.52,156.08-142.52S577,254.31,577,260.91Z" transform="translate(-239.87 -93.4)"/><line class="82562e22-f529-4fc9-84a9-8a37ca41977b" x1="181.08" y1="383.49" x2="181.08" y2="155.52"/><polyline class="21804fa4-053c-4b5e-8a2f-8f9b02c601ce" points="25 189.05 181.08 47.32 337.15 189.05 25.19 189.05"/><path class="01b721a9-36c3-4899-9642-538bf7343999" d="M577,260.91v204c0,6.6-5.95,12-13.21,12H278.08c-7.27,0-13.21-5.4-13.21-12v-204c0-6.6,156.08-142.52,156.08-142.52S577,254.31,577,260.91Z" transform="translate(-239.87 -93.4)"/></svg>