<svg id="1a8aa953-807c-40db-9061-63bf27b624cf" data-name="Layer 1" xmlns="http://www.w3.org/2000/svg" viewBox="0 0 408.49 362.15"><defs><style>.\33 2ec0087-ad74-45a5-960a-d4abc9150c28{fill:#f0c419;}.\33 2ec0087-ad74-45a5-960a-d4abc9150c28,.\39 dfe4670-b255-42b1-9188-9b8c15a517be{stroke:#2d3e50;stroke-width:50px;}.\31 5a8677e-fa21-40a6-9c78-dd8ecb09d8d9,.\33 2ec0087-ad74-45a5-960a-d4abc9150c28,.\39 dfe4670-b255-42b1-9188-9b8c15a517be{stroke-linecap:round;stroke-linejoin:round;}.\31 5a8677e-fa21-40a6-9c78-dd8ecb09d8d9,.\39 dfe4670-b255-42b1-9188-9b8c15a517be{fill:none;}.\31 5a8677e-fa21-40a6-9c78-dd8ecb09d8d9{stroke:#e74c3d;stroke-width:20px;}.ae41e9eb-0482-4666-86b3-39aa0b0c22ba{fill:#e74c3d;}</style></defs><title>sentry_left</title><path class="32ec0087-ad74-45a5-960a-d4abc9150c28" d="M313.26,160h204c6.6,0,12,5.95,12,13.21V459c0,7.27-5.4,13.21-12,13.21h-204c-6.6,0-142.52-156.08-142.52-156.08S306.66,160,313.26,160Z" transform="translate(-145.75 -135.02)"/><line class="15a8677e-fa21-40a6-9c78-dd8ecb09d8d9" x1="383.49" y1="181.08" x2="155.52" y2="181.08"/><polyline class="ae41e9eb-0482-4666-86b3-39aa0b0c22ba" points="189.05 337.15 47.32 181.08 189.05 25 189.05 336.96"/><path class="9dfe4670-b255-42b1-9188-9b8c15a517be" d="M313.26,160h204c6.6,0,12,5.95,12,13.21V459c0,7.27-5.4,13.21-12,13.21h-204c-6.6,0-142.52-156.08-142.52-156.08S306.66,160,313.26,160Z" transform="translate(-145.75 -135.02)"/></svg>