<svg id="cd12e255-e394-4b93-b0fa-106b9209ee28" data-name="Layer 1" xmlns="http://www.w3.org/2000/svg" viewBox="0 0 408.49 362.15"><defs><style>.\30 4ce2e4b-2bc1-47a6-9195-3f6eaffd0920{fill:#f0c419;}.\30 4ce2e4b-2bc1-47a6-9195-3f6eaffd0920,.\37 85b7646-a8a3-4f74-9b75-e1f0a6d0b140{stroke:#2d3e50;}.\30 4ce2e4b-2bc1-47a6-9195-3f6eaffd0920,.\37 85b7646-a8a3-4f74-9b75-e1f0a6d0b140,.e3d37719-9546-400d-b338-b888f7c9a5a7{stroke-linecap:round;stroke-linejoin:round;stroke-width:50px;}.\37 85b7646-a8a3-4f74-9b75-e1f0a6d0b140,.e3d37719-9546-400d-b338-b888f7c9a5a7{fill:none;}.e3d37719-9546-400d-b338-b888f7c9a5a7{stroke:#e74c3d;}.\32 6fd9f9b-2ab2-4f5c-88e8-974607ffe477{fill:#e74c3d;}</style></defs><title>sentry_right</title><path class="04ce2e4b-2bc1-47a6-9195-3f6eaffd0920" d="M457.67,453.72h-204c-6.6,0-12-5.95-12-13.21V154.78c0-7.27,5.4-13.21,12-13.21h204c6.6,0,142.52,156.08,142.52,156.08S464.27,453.72,457.67,453.72Z" transform="translate(-216.7 -116.56)"/><line class="e3d37719-9546-400d-b338-b888f7c9a5a7" x1="25" y1="181.08" x2="252.97" y2="181.08"/><polyline class="26fd9f9b-2ab2-4f5c-88e8-974607ffe477" points="219.44 25 361.17 181.08 219.44 337.15 219.44 25.19"/><path class="785b7646-a8a3-4f74-9b75-e1f0a6d0b140" d="M457.67,453.72h-204c-6.6,0-12-5.95-12-13.21V154.78c0-7.27,5.4-13.21,12-13.21h204c6.6,0,142.52,156.08,142.52,156.08S464.27,453.72,457.67,453.72Z" transform="translate(-216.7 -116.56)"/></svg>