<svg id="d44bf4b8-90a3-4c81-bf4d-ff0f0dc1e595" data-name="Layer 1" xmlns="http://www.w3.org/2000/svg" viewBox="0 0 408.49 362.15"><defs><style>.a3f21ffb-8ec5-4ead-b99d-7916d2357379{fill:#f0c419;}.a3f21ffb-8ec5-4ead-b99d-7916d2357379,.f81bc956-0f65-4bd4-94a4-f0ff62afb2ce{stroke:#2d3e50;stroke-width:50px;}.\33 c23f5da-1e5c-4d38-9e9e-ef0392450a9f,.a3f21ffb-8ec5-4ead-b99d-7916d2357379,.f81bc956-0f65-4bd4-94a4-f0ff62afb2ce{stroke-linecap:round;stroke-linejoin:round;}.\33 c23f5da-1e5c-4d38-9e9e-ef0392450a9f,.f81bc956-0f65-4bd4-94a4-f0ff62afb2ce{fill:none;}.\33 c23f5da-1e5c-4d38-9e9e-ef0392450a9f{stroke:#e74c3d;stroke-width:20px;}.\34 fdb556b-05b5-4e48-a927-dbc17a1e14e2{fill:#e74c3d;}</style></defs><title>sentry_right</title><path class="a3f21ffb-8ec5-4ead-b99d-7916d2357379" d="M457.67,453.72h-204c-6.6,0-12-5.95-12-13.21V154.78c0-7.27,5.4-13.21,12-13.21h204c6.6,0,142.52,156.08,142.52,156.08S464.27,453.72,457.67,453.72Z" transform="translate(-216.7 -116.56)"/><line class="3c23f5da-1e5c-4d38-9e9e-ef0392450a9f" x1="25" y1="181.08" x2="252.97" y2="181.08"/><polyline class="4fdb556b-05b5-4e48-a927-dbc17a1e14e2" points="219.44 25 361.17 181.08 219.44 337.15 219.44 25.19"/><path class="f81bc956-0f65-4bd4-94a4-f0ff62afb2ce" d="M457.67,453.72h-204c-6.6,0-12-5.95-12-13.21V154.78c0-7.27,5.4-13.21,12-13.21h204c6.6,0,142.52,156.08,142.52,156.08S464.27,453.72,457.67,453.72Z" transform="translate(-216.7 -116.56)"/></svg>