<svg id="2d2a0bc0-bd6c-494d-8379-163faeede31c" data-name="Layer 1" xmlns="http://www.w3.org/2000/svg" viewBox="0 0 408.49 362.15"><defs><style>.\32 87b68c2-2b0b-48b0-99ce-aa0d0fbd59df{fill:#f0c419;}.\32 0dfaa4b-bd0f-44e7-8660-8a4ade51fc92,.\32 87b68c2-2b0b-48b0-99ce-aa0d0fbd59df{stroke:#2d3e50;}.\32 0dfaa4b-bd0f-44e7-8660-8a4ade51fc92,.\32 87b68c2-2b0b-48b0-99ce-aa0d0fbd59df,.\33 255f851-2bff-4d5c-bff7-74e59f216061{stroke-linecap:round;stroke-linejoin:round;stroke-width:50px;}.\32 0dfaa4b-bd0f-44e7-8660-8a4ade51fc92,.\33 255f851-2bff-4d5c-bff7-74e59f216061{fill:none;}.\33 255f851-2bff-4d5c-bff7-74e59f216061{stroke:#e74c3d;}.f8724ca3-d949-4494-a31b-bf9b93e1b788{fill:#e74c3d;}</style></defs><title>sentry_left</title><path class="287b68c2-2b0b-48b0-99ce-aa0d0fbd59df" d="M384.22,141.56h204c6.6,0,12,5.95,12,13.21V440.5c0,7.27-5.4,13.21-12,13.21h-204c-6.6,0-142.52-156.08-142.52-156.08S377.62,141.56,384.22,141.56Z" transform="translate(-216.7 -116.56)"/><line class="3255f851-2bff-4d5c-bff7-74e59f216061" x1="383.49" y1="181.08" x2="155.52" y2="181.08"/><polyline class="f8724ca3-d949-4494-a31b-bf9b93e1b788" points="189.05 337.15 47.32 181.08 189.05 25 189.05 336.96"/><path class="20dfaa4b-bd0f-44e7-8660-8a4ade51fc92" d="M384.22,141.56h204c6.6,0,12,5.95,12,13.21V440.5c0,7.27-5.4,13.21-12,13.21h-204c-6.6,0-142.52-156.08-142.52-156.08S377.62,141.56,384.22,141.56Z" transform="translate(-216.7 -116.56)"/></svg>