<svg id="7b1b899c-7a93-4105-9806-c3093839c4eb" data-name="Layer 1" xmlns="http://www.w3.org/2000/svg" viewBox="0 0 425.2 425.2"><defs><style>.de13f774-e269-41dd-ab07-400344b39814{fill:#bec3c7;}.\37 cd2937d-6529-4279-9582-bc1c19725823{fill:#ecf0f1;}.\39 81ee4c1-ddf9-4f19-8ebe-dc95264d44ba{fill:#7e8c8d;}</style></defs><title>wall_round_5</title><rect class="de13f774-e269-41dd-ab07-400344b39814" width="425.2" height="425.2"/><path class="7cd2937d-6529-4279-9582-bc1c19725823" d="M302.83,274a94.49,94.49,0,0,1,94.49-94.49H530.51a94,94,0,0,0-62.32-23.62H373.7c-52,0-94.49,42.52-94.49,94.49v94.49a94,94,0,0,0,23.62,62.32V274Z" transform="translate(-208.35 -85.04)"/><path class="981ee4c1-ddf9-4f19-8ebe-dc95264d44ba" d="M539.06,321.26a94.49,94.49,0,0,1-94.49,94.49H311.38a94,94,0,0,0,62.32,23.62h94.49c52,0,94.49-42.52,94.49-94.49V250.4a94,94,0,0,0-23.62-62.32V321.26Z" transform="translate(-208.35 -85.04)"/></svg>