<svg id="e859cdde-9455-44a9-9595-fd2b0c70aa30" data-name="Layer 1" xmlns="http://www.w3.org/2000/svg" viewBox="0 0 425.2 425.2"><defs><style>.\32 4ad6a3e-2788-4d3e-900d-351e845b3274{fill:#bec3c7;}.b3f73b0c-6adb-46d2-9e9e-19c815ac4631{fill:#ecf0f1;}.\36 d337b63-9883-4749-b707-ba0adcf98435{fill:#7e8c8d;}</style></defs><title>wall_round_7</title><path class="24ad6a3e-2788-4d3e-900d-351e845b3274" d="M141.73,0H425.2a0,0,0,0,1,0,0V425.2a0,0,0,0,1,0,0H0a0,0,0,0,1,0,0V141.73A141.73,141.73,0,0,1,141.73,0Z"/><path class="b3f73b0c-6adb-46d2-9e9e-19c815ac4631" d="M302.83,274a94.49,94.49,0,0,1,94.49-94.49H530.51a94,94,0,0,0-62.32-23.62H373.7c-52,0-94.49,42.52-94.49,94.49v94.49a94,94,0,0,0,23.62,62.32V274Z" transform="translate(-208.35 -85.04)"/><path class="6d337b63-9883-4749-b707-ba0adcf98435" d="M539.06,321.26a94.49,94.49,0,0,1-94.49,94.49H311.38a94,94,0,0,0,62.32,23.62h94.49c52,0,94.49-42.52,94.49-94.49V250.4a94,94,0,0,0-23.62-62.32V321.26Z" transform="translate(-208.35 -85.04)"/></svg>