<svg id="eb37db07-7db2-4505-8115-c72f31d41cb7" data-name="Layer 1" xmlns="http://www.w3.org/2000/svg" viewBox="0 0 425.2 425.2"><defs><style>.\33 1c3df7e-5aa6-4702-ae1f-0011beecde91{fill:#bec3c7;}.\34 37eb1b5-3e71-47c0-b47c-2168f835d846{fill:#ecf0f1;}.dd47ae8f-b91b-42c2-b3cf-c29fbfe2d7d9{fill:#7e8c8d;}</style></defs><title>wall_round_6</title><path class="31c3df7e-5aa6-4702-ae1f-0011beecde91" d="M0,0H283.46A141.73,141.73,0,0,1,425.2,141.73V283.46A141.73,141.73,0,0,1,283.46,425.2H0a0,0,0,0,1,0,0V0A0,0,0,0,1,0,0Z"/><path class="437eb1b5-3e71-47c0-b47c-2168f835d846" d="M302.83,274a94.49,94.49,0,0,1,94.49-94.49H530.51a94,94,0,0,0-62.32-23.62H373.7c-52,0-94.49,42.52-94.49,94.49v94.49a94,94,0,0,0,23.62,62.32V274Z" transform="translate(-208.35 -85.04)"/><path class="dd47ae8f-b91b-42c2-b3cf-c29fbfe2d7d9" d="M539.06,321.26a94.49,94.49,0,0,1-94.49,94.49H311.38a94,94,0,0,0,62.32,23.62h94.49c52,0,94.49-42.52,94.49-94.49V250.4a94,94,0,0,0-23.62-62.32V321.26Z" transform="translate(-208.35 -85.04)"/></svg>