<svg id="272a2e5f-2c36-4af6-9cad-e6235c715526" data-name="Layer 1" xmlns="http://www.w3.org/2000/svg" viewBox="0 0 425.2 425.2"><defs><style>.\38 637ae67-0cc2-4cb5-aaa1-496fc70d8d74{fill:#bec3c7;}.fc901394-61e6-40f9-b3d7-c615e632426d{fill:#ecf0f1;}.\39 ef693e9-4d63-4d60-abd2-250db9afec6b{fill:#7e8c8d;}</style></defs><title>wall_round_2</title><path class="8637ae67-0cc2-4cb5-aaa1-496fc70d8d74" d="M350.08,85H633.54a0,0,0,0,1,0,0v425.2a0,0,0,0,1,0,0H350.08A141.73,141.73,0,0,1,208.35,368.51V226.77A141.73,141.73,0,0,1,350.08,85Z" transform="translate(-85.04 633.54) rotate(-90)"/><path class="fc901394-61e6-40f9-b3d7-c615e632426d" d="M302.83,274a94.49,94.49,0,0,1,94.49-94.49H530.51a94,94,0,0,0-62.32-23.62H373.7c-52,0-94.49,42.52-94.49,94.49v94.49a94,94,0,0,0,23.62,62.32V274Z" transform="translate(-208.35 -85.04)"/><path class="9ef693e9-4d63-4d60-abd2-250db9afec6b" d="M539.06,321.26a94.49,94.49,0,0,1-94.49,94.49H311.38a94,94,0,0,0,62.32,23.62h94.49c52,0,94.49-42.52,94.49-94.49V250.4a94,94,0,0,0-23.62-62.32V321.26Z" transform="translate(-208.35 -85.04)"/></svg>