<svg id="a2b0e2c2-8077-4c44-8489-28513b634255" data-name="Layer 1" xmlns="http://www.w3.org/2000/svg" viewBox="0 0 425.2 425.2"><defs><style>.\32 c109806-d2ac-4432-b563-26579bd586ba{fill:#bec3c7;}.\39 1bb0d77-829b-4ab7-ac41-82fa9468a96b{fill:#ecf0f1;}.\33 2af6c26-a0e4-4339-b91f-20583fd1041a{fill:#7e8c8d;}</style></defs><title>wall_round</title><rect class="2c109806-d2ac-4432-b563-26579bd586ba" width="425.2" height="425.2" rx="141.73" ry="141.73"/><path class="91bb0d77-829b-4ab7-ac41-82fa9468a96b" d="M302.83,274a94.49,94.49,0,0,1,94.49-94.49H530.51a94,94,0,0,0-62.32-23.62H373.7c-52,0-94.49,42.52-94.49,94.49v94.49a94,94,0,0,0,23.62,62.32V274Z" transform="translate(-208.35 -85.04)"/><path class="32af6c26-a0e4-4339-b91f-20583fd1041a" d="M539.06,321.26a94.49,94.49,0,0,1-94.49,94.49H311.38a94,94,0,0,0,62.32,23.62h94.49c52,0,94.49-42.52,94.49-94.49V250.4a94,94,0,0,0-23.62-62.32V321.26Z" transform="translate(-208.35 -85.04)"/></svg>