<svg id="bbf45366-e7fc-4a2d-bd82-38b23d85495f" data-name="Layer 1" xmlns="http://www.w3.org/2000/svg" viewBox="0 0 425.2 425.2"><defs><style>.cc66d50b-9f91-41dd-b400-f5e522aad42d{fill:#bec3c7;}.c91e70ed-777a-4149-b77a-d9d259fd98a7{fill:#ecf0f1;}.e6ef5719-a069-44ac-ab80-b5ed6462a444{fill:#7e8c8d;}</style></defs><title>wall_round_1</title><path class="cc66d50b-9f91-41dd-b400-f5e522aad42d" d="M0,0H425.2a0,0,0,0,1,0,0V425.2a0,0,0,0,1,0,0H141.73A141.73,141.73,0,0,1,0,283.46V0A0,0,0,0,1,0,0Z"/><path class="c91e70ed-777a-4149-b77a-d9d259fd98a7" d="M302.83,274a94.49,94.49,0,0,1,94.49-94.49H530.51a94,94,0,0,0-62.32-23.62H373.7c-52,0-94.49,42.52-94.49,94.49v94.49a94,94,0,0,0,23.62,62.32V274Z" transform="translate(-208.35 -85.04)"/><path class="e6ef5719-a069-44ac-ab80-b5ed6462a444" d="M539.06,321.26a94.49,94.49,0,0,1-94.49,94.49H311.38a94,94,0,0,0,62.32,23.62h94.49c52,0,94.49-42.52,94.49-94.49V250.4a94,94,0,0,0-23.62-62.32V321.26Z" transform="translate(-208.35 -85.04)"/></svg>